<?xml version="1.0" encoding="UTF-8" standalone="no"?>
<svg
   xmlns:dc="http://purl.org/dc/elements/1.1/"
   xmlns:cc="http://creativecommons.org/ns#"
   xmlns:rdf="http://www.w3.org/1999/02/22-rdf-syntax-ns#"
   xmlns:svg="http://www.w3.org/2000/svg"
   xmlns="http://www.w3.org/2000/svg"
   version="1.1"
   id="svg2"
   viewBox="0 0 250.00001 318.75003"
   height="89.958344mm"
   width="70.555557mm">
  <defs
     id="defs4" />
  <metadata
     id="metadata7">
    <rdf:RDF>
      <cc:Work
         rdf:about="">
        <dc:format>image/svg+xml</dc:format>
        <dc:type
           rdf:resource="http://purl.org/dc/dcmitype/StillImage" />
        <dc:title></dc:title>
      </cc:Work>
    </rdf:RDF>
  </metadata>
  <g
     transform="translate(-44.285699,-79.415817)"
     id="layer1">
    <path
       id="path4160"
       d="m 44.285699,265.04082 0,-133.12502 21.16863,0 c 11.64274,0 22.58455,-0.53833 24.31513,-1.19629 1.73058,-0.65797 4.0521,-2.94753 5.15894,-5.08793 1.10684,-2.14039 3.96684,-5.04475 6.355561,-6.45413 2.38872,-1.40937 5.19362,-4.20718 6.23312,-6.21735 1.0395,-2.01017 3.61988,-4.70686 5.73418,-5.99264 2.11429,-1.28578 4.86981,-3.93278 6.12336,-5.88222 1.25355,-1.949438 4.69948,-5.267828 7.65763,-7.374208 4.20933,-2.99729 5.63443,-4.96722 6.55603,-9.0625 l 1.17758,-5.23273 34.51985,0 34.51985,0 1.17758,5.23273 c 0.9216,4.09528 2.3467,6.06521 6.55602,9.0625 2.95815,2.10638 6.40409,5.42477 7.65764,7.374208 1.25355,1.94944 4.00906,4.59644 6.12336,5.88222 2.1143,1.28578 4.72477,4.04064 5.80103,6.12191 1.07626,2.08126 3.67439,4.67229 5.7736,5.75784 2.09923,1.08555 4.98443,3.95275 6.41156,6.37157 1.42713,2.41881 3.95544,4.91515 5.61845,5.54743 1.66302,0.63228 12.54954,1.14959 24.19229,1.14959 l 21.16863,0 0,133.12502 0,133.12506 -125.00001,0 -125.000011,0 0,-133.12506 z m 234.375021,0.625 0,-116.87501 -109.37501,0 -109.375011,0 -0.3309,115.61307 c -0.182,63.5872 -0.0578,116.3247 0.27591,117.1944 0.48418,1.2617 22.65356,1.5167 109.705901,1.2619 l 109.09911,-0.3194 0,-116.87496 z M 104.80115,200.20607 c -0.36574,-0.9531 -0.49071,-4.47394 -0.27771,-7.82408 l 0.38726,-6.09118 63.12501,0 63.125,0 0,7.5 0,7.5 -62.84729,0.32408 c -52.63827,0.27144 -62.95531,0.0426 -63.51227,-1.40882 z m 99.48456,-69.96794 c 9.92084,-0.33788 13.38517,-1.45363 14.3953,-4.63627 1.1694,-3.68446 -0.3061,-6.84147 -4.10351,-8.77999 -5.35399,-2.73312 -16.70934,-15.00943 -18.38464,-19.875698 -2.21399,-6.43096 -6.51797,-8.4873 -13.72801,-6.5589 -3.14326,0.84069 -11.87046,1.52853 -19.39379,1.52853 l -13.67877,0 -3.49079,4.51532 c -1.91994,2.48343 -4.28965,5.155308 -5.26604,5.937498 -0.97638,0.7822 -4.35138,3.97344 -7.5,7.09164 -3.14861,3.11819 -7.26231,6.44263 -9.14154,7.38763 -5.75402,2.89351 -6.10523,10.22551 -0.58177,12.1454 1.51171,0.52545 8.65481,0.81199 15.87356,0.63675 7.21875,-0.17524 14.8125,0.24474 16.875,0.93328 2.20481,0.73605 11.21841,0.98399 21.875,0.60172 9.96875,-0.35761 21.78125,-0.77471 26.25,-0.92691 z"
       style="fill:#0b0b0b" />
  </g>
</svg>
