<?xml version="1.0" encoding="UTF-8" standalone="no"?>
<svg
   xmlns:dc="http://purl.org/dc/elements/1.1/"
   xmlns:cc="http://creativecommons.org/ns#"
   xmlns:rdf="http://www.w3.org/1999/02/22-rdf-syntax-ns#"
   xmlns:svg="http://www.w3.org/2000/svg"
   xmlns="http://www.w3.org/2000/svg"
   version="1.1"
   id="svg2"
   viewBox="0 0 124.99999 158.75"
   height="44.802776mm"
   width="35.277775mm">
  <defs
     id="defs4" />
  <metadata
     id="metadata7">
    <rdf:RDF>
      <cc:Work
         rdf:about="">
        <dc:format>image/svg+xml</dc:format>
        <dc:type
           rdf:resource="http://purl.org/dc/dcmitype/StillImage" />
        <dc:title></dc:title>
      </cc:Work>
    </rdf:RDF>
  </metadata>
  <g
     transform="translate(-239.2503,-372.32467)"
     id="layer1">
    <path
       id="path4302"
       d="m 239.2503,460.44967 0,-70.625 13.21925,0 13.21924,0 8.47665,-8.75 8.47665,-8.75 19.4967,0 19.4967,0 8.4949,8.4375 8.4949,8.4375 12.8125,0.42628 12.8125,0.42628 0,70.51122 0,70.51122 -62.5,0 -62.49999,0 0,-70.625 z m 95.53569,-38.83929 c 2.2836,-2.28354 2.4853,-4.7266 0.6703,-8.11789 -1.2282,-2.29499 -2.9405,-2.41782 -33.706,-2.41782 -30.76551,0 -32.47776,0.12283 -33.70601,2.41782 -1.81496,3.39129 -1.61323,5.83435 0.67031,8.11789 2.94497,2.94498 63.1264,2.94498 66.0714,0 z m -9.4995,-34.72308 c 0.2765,-1.43587 -1.1385,-3.66722 -3.733,-5.8867 -4.0968,-3.50474 -4.4776,-3.57532 -19.5575,-3.62513 -14.935,-0.0493 -15.5037,0.0485 -19.6874,3.3867 -3.976,3.17244 -5.3682,6.33597 -3.5766,8.12752 0.4024,0.40243 10.9416,0.63681 23.4205,0.52084 20.9888,-0.19506 22.7221,-0.38412 23.134,-2.52323 z"
       style="fill:#020202" />
  </g>
</svg>
