<?xml version="1.0" encoding="UTF-8" standalone="no"?>
<svg
   xmlns:dc="http://purl.org/dc/elements/1.1/"
   xmlns:cc="http://creativecommons.org/ns#"
   xmlns:rdf="http://www.w3.org/1999/02/22-rdf-syntax-ns#"
   xmlns:svg="http://www.w3.org/2000/svg"
   xmlns="http://www.w3.org/2000/svg"
   version="1.1"
   id="svg2"
   viewBox="0 0 99.999996 140.00003"
   height="39.511116mm"
   width="28.222221mm">
  <defs
     id="defs4" />
  <metadata
     id="metadata7">
    <rdf:RDF>
      <cc:Work
         rdf:about="">
        <dc:format>image/svg+xml</dc:format>
        <dc:type
           rdf:resource="http://purl.org/dc/dcmitype/StillImage" />
        <dc:title></dc:title>
      </cc:Work>
    </rdf:RDF>
  </metadata>
  <g
     transform="translate(-420.67894,-640.53894)"
     id="layer1">
    <path
       id="path4341"
       d="m 420.67894,721.16395 0,-59.37501 8.9315,0 8.9314,0 9.1936,-9.19355 c 5.0564,-5.05645 9.1935,-9.8377 9.1935,-10.625 0,-0.98851 4.2547,-1.43145 13.75,-1.43145 9.4953,0 13.75,0.44294 13.75,1.43145 0,0.7873 4.1371,5.56855 9.1935,10.625 l 9.1936,9.19355 8.9314,0 8.9315,0 0,59.37501 0,59.37501 -50,0 -50,0 0,-59.37501 z m 74.375,-25.625 0,-4.375 -24.375,0 -24.375,0 -0.4114,2.90341 c -0.9262,6.53751 -0.8683,6.55181 25.0701,6.18618 l 24.0913,-0.33959 0,-4.375 z m -12.0584,-34.55308 c 4.5902,-0.47977 7.6834,-1.39363 7.6834,-2.27 0,-0.80681 -1.8281,-3.14198 -4.0625,-5.18927 -2.2344,-2.04729 -4.6899,-4.82266 -5.4567,-6.1675 -1.2134,-2.12827 -2.4924,-2.38653 -9.8685,-1.99279 -8.1809,0.43671 -8.6844,0.65699 -14.5433,6.36392 -3.3379,3.25136 -6.069,6.53658 -6.069,7.30049 0,1.26604 2.4441,1.5717 20.1291,2.51737 2.4773,0.13247 7.9617,-0.12052 12.1875,-0.56222 z"
       style="fill:#030303" />
  </g>
</svg>
